{"title":"Baby Got Boobs # 8 DVD","uid":7064540,"size":1834965350,"categoryP":"porn","categoryS":"movies","magnet":"?xt=urn:btih:6492baec31e988ebf68fa9b0991d02b61f4e942c&amp;dn=Baby+Got+Boobs+%23+8+DVD&amp;tr=udp%3A%2F%2Ftracker.openbittorrent.com%3A80&amp;tr=udp%3A%2F%2Fopen.demonii.com%3A1337&amp;tr=udp%3A%2F%2Ftracker.coppersurfer.tk%3A6969&amp;tr=udp%3A%2F%2Fexodus.desync.com%3A6969","seeders":0,"leechers":1,"uploader":"tigris1968","files":93,"time":1330468787,"description":"Baby Got Boobs # 8 DVD\n\nBrazzers\n\nCategory All Sex Movies, Big Tits \n\nStarring Sarah Vandella, Lizzy London, Nicole Aniston, Jacky Joy, \n\nTasha Reign, Samantha Saint, Richelle Ryan .\n\nInfo\n\n'Switchblade Slut' - Sarah is on a date with a total loser. The date is boring and going nowhere, so when Johnny pulls up in a car next to Sarah, she pulls out her switchblade and scares the square off. The two sneak off for some fast whoopee!\n\n'The Joy Toy' - Jacky goes to see Johnny at the tanning salon. While getting everything ready, Johnny spots Jacky completely undressed, and boy is he turned on. Lucky for him, Jacky is just as horny. Sex time!\n\n'Wild Girls' - Lizzy and Nicole have been planning a downright dirty scheme for the last few months. With the help of their teacher, Mr. Gunn, these two sexy ladies are going to make some serious money!\n\n'Abrascrewdabra' - The great Bobbledini's tricks are not working out so well. To save the night Bobbledini gets his assistant, Richelle, to perform the best trick of all, make his cock disappear down her mouth and get fucked in her tight pussy!\n\n'My Mommy Does Porno: Part II' - Samantha just walked in on her mother, Julia, fucking and sucking for a dirty movie. Upset at her mother for being a hypocrite, Samantha calls Keiran, grabs the film crew and shoots a video of her own!\n\n\nStudio Brazzers \n\nDiscs 1 \n\nRelease Date New Baby Got Boobs # 8 DVD release date Feb 21, 2012\n\n                             COVERS\n &lt;a href=&quot;\nhttp://bayimg.com/pAmpnaado&quot; rel=&quot;nofollow&quot; target=&quot;_NEW&quot;&gt;\nhttp://bayimg.com/pAmpnaado&lt;/a&gt;\n &lt;a href=&quot;\nhttp://bayimg.com/pAmPPAADO&quot; rel=&quot;nofollow&quot; target=&quot;_NEW&quot;&gt;\nhttp://bayimg.com/pAmPPAADO&lt;/a&gt;\n &lt;a href=&quot;\nhttp://bayimg.com/AamaEAaDP&quot; rel=&quot;nofollow&quot; target=&quot;_NEW&quot;&gt;\nhttp://bayimg.com/AamaEAaDP&lt;/a&gt;\n\n                             info\n\nGeneral\nComplete name                    : C:\\Downloads\\Baby Got Boobs # 8 DVD\\DVD\\Baby Got Boobs # 8 DVD.avi\nFormat                           : AVI\nFormat/Info                      : Audio Video Interleave\nFormat profile                   : OpenDML\nFile size                        : 1.69 GiB\nDuration                         : 3h 3mn\nOverall bit rate                 : 1 315 Kbps\nWriting application              : MEncoder SVN-r30881(20100311-gcc4.3.3)\nWriting library                  : MPlayer\n\nVideo\nID                               : 0\nFormat                           : MPEG-4 Visual\nFormat profile                   : Advanced Simple@L5\nFormat settings, BVOP            : 2\nFormat settings, QPel            : No\nFormat settings, GMC             : No warppoints\nFormat settings, Matrix          : Default (H.263)\nCodec ID                         : XVID\nCodec ID/Hint                    : XviD\nDuration                         : 3h 3mn\nBit rate                         : 35.3 Kbps\nWidth                            : 720 pixels\nHeight                           : 480 pixels\nDisplay aspect ratio             : 3:2\nFrame rate                       : 25.000 fps\nStandard                         : NTSC\nColor space                      : YUV\nChroma subsampling               : 4:2:0\nBit depth                        : 8 bits\nScan type                        : Progressive\nCompression mode                 : Lossy\nBits/(Pixel*Frame)               : 0.004\nStream size                      : 46.3 MiB (3%)\nWriting library                  : XviD 1.2.1 (UTC 2008-12-04)\n\nAudio\nID                               : 1\nFormat                           : MPEG Audio\nCodec ID                         : 55\nCodec ID/Hint                    : MP3\nDuration                         : 3h 3mn\nBit rate                         : 128 Kbps\nChannel(s)                       : 2 channels\nSampling rate                    : 44.1 KHz\nCompression mode                 : Lossy\nStream size                      : 168 MiB (10%)\nAlignment                        : Aligned on interleaves","torrent":{"xt":"urn:btih:6492baec31e988ebf68fa9b0991d02b61f4e942c","amp;dn":"Baby+Got+Boobs+%23+8+DVD","amp;tr":["udp%3A%2F%2Ftracker.openbittorrent.com%3A80","udp%3A%2F%2Fopen.demonii.com%3A1337","udp%3A%2F%2Ftracker.coppersurfer.tk%3A6969","udp%3A%2F%2Fexodus.desync.com%3A6969"],"infoHash":"6492baec31e988ebf68fa9b0991d02b61f4e942c","infoHashBuffer":{"type":"Buffer","data":[100,146,186,236,49,233,136,235,246,143,169,176,153,29,2,182,31,78,148,44]},"announce":[],"urlList":[]}}